<?xml version="1.0" encoding="UTF-8" standalone="no"?>
<!-- Created with Inkscape (http://www.inkscape.org/) -->

<svg
   xmlns:dc="http://purl.org/dc/elements/1.1/"
   xmlns:cc="http://creativecommons.org/ns#"
   xmlns:rdf="http://www.w3.org/1999/02/22-rdf-syntax-ns#"
   xmlns:svg="http://www.w3.org/2000/svg"
   xmlns="http://www.w3.org/2000/svg"
   xmlns:sodipodi="http://sodipodi.sourceforge.net/DTD/sodipodi-0.dtd"
   xmlns:inkscape="http://www.inkscape.org/namespaces/inkscape"
   width="744.09448819"
   height="1052.3622047"
   id="svg2"
   version="1.1"
   inkscape:version="0.48.4 r9939"
   sodipodi:docname="New document 1">
  <defs
     id="defs4" />
  <sodipodi:namedview
     id="base"
     pagecolor="#ffffff"
     bordercolor="#666666"
     borderopacity="1.0"
     inkscape:pageopacity="0.0"
     inkscape:pageshadow="2"
     inkscape:zoom="0.98994949"
     inkscape:cx="317.52367"
     inkscape:cy="518.16445"
     inkscape:document-units="px"
     inkscape:current-layer="layer1"
     showgrid="false"
     inkscape:window-width="663"
     inkscape:window-height="667"
     inkscape:window-x="1523"
     inkscape:window-y="156"
     inkscape:window-maximized="0" />
  <metadata
     id="metadata7">
    <rdf:RDF>
      <cc:Work
         rdf:about="">
        <dc:format>image/svg+xml</dc:format>
        <dc:type
           rdf:resource="http://purl.org/dc/dcmitype/StillImage" />
        <dc:title></dc:title>
      </cc:Work>
    </rdf:RDF>
  </metadata>
  <g
     inkscape:label="Layer 1"
     inkscape:groupmode="layer"
     id="layer1">
    <path
       style="fill:none;stroke:#000000;stroke-width:1px;stroke-linecap:butt;stroke-linejoin:miter;stroke-opacity:1"
       d="m 322.82741,693.22876 c 23.72003,-5.04486 79.8988,-13.11628 105.71429,-80 0.46833,0.45692 29.85162,-46.22108 -8.57143,-120 -27.32171,-23.70627 -48.24923,-51.1809 -114.28572,-54.28572 -44.43835,4.97797 -86.06581,21.76168 -117.14285,82.85715 -12.13332,41.30475 -3.18052,72.06645 5.71428,102.85714 31.93754,25.32286 33.50866,66.57652 128.57143,68.57143 z"
       id="path2987"
       inkscape:connector-curvature="0"
       sodipodi:nodetypes="ccccccc" />
    <path
       style="fill:none;stroke:#000000;stroke-width:1.16129255px;stroke-linecap:butt;stroke-linejoin:miter;stroke-opacity:1"
       d="m 319.17432,713.74408 c 27.71293,-5.82326 93.34848,-15.14004 123.50959,-92.34349 0.54718,0.52742 34.87667,-53.3527 -10.01429,-138.51523 -31.92087,-27.364 -56.3712,-59.07778 -133.52388,-62.66167 -51.91882,5.74605 -100.5536,25.11937 -136.86196,95.64148 -14.17577,47.67781 -3.71591,83.18585 6.67618,118.72734 37.31372,29.23002 39.14931,76.84886 150.21436,79.15157 z"
       id="path2987-7"
       inkscape:connector-curvature="0"
       sodipodi:nodetypes="ccccccc" />
  </g>
</svg>
